<svg width="44" height="44" viewBox="0 0 44 44" fill="none" xmlns="http://www.w3.org/2000/svg">
<rect x="0.5" y="0.5" width="43" height="43" rx="9.5" stroke="black" stroke-opacity="0.4"/>
<g clip-path="url(#clip0_1_7)">
<path d="M22 25.75C24.0711 25.75 25.75 24.0711 25.75 22C25.75 19.9289 24.0711 18.25 22 18.25C19.9289 18.25 18.25 19.9289 18.25 22C18.25 24.0711 19.9289 25.75 22 25.75Z" fill="black"/>
<path fill-rule="evenodd" clip-rule="evenodd" d="M10.9055 20.125C11.6959 15.414 15.414 11.6959 20.125 10.9055V7H23.875V10.9055C28.5859 11.6959 32.3041 15.414 33.0944 20.125H37V23.875H33.0944C32.3041 28.5859 28.5859 32.3041 23.875 33.0944V37H20.125V33.0944C15.414 32.3041 11.6959 28.5859 10.9055 23.875H7V20.125H10.9055ZM14.5 22C14.5 17.8579 17.8579 14.5 22 14.5C26.1421 14.5 29.5 17.8579 29.5 22C29.5 26.1421 26.1421 29.5 22 29.5C17.8579 29.5 14.5 26.1421 14.5 22Z" fill="black"/>
</g>
<defs>
<clipPath id="clip0_1_7">
<rect width="30" height="30" fill="white" transform="translate(7 7)"/>
</clipPath>
</defs>
</svg>
